<svg xmlns="http://www.w3.org/2000/svg" width="500" height="500" viewBox="0 0 500 500" version="1.1"><path d="M 77.946 76.750 L 74.500 80.500 78.250 77.054 C 81.740 73.846, 82.460 73, 81.696 73 C 81.529 73, 79.842 74.688, 77.946 76.750 M 286 104.616 C 275.862 106.480, 262.363 111.367, 254.324 116.083 C 246.606 120.611, 232.202 134.990, 227.811 142.550 C 222.868 151.062, 219.076 160.984, 216.754 171.487 C 215.050 179.199, 214.692 185.442, 214.275 214.734 L 213.787 248.968 186.644 249.234 L 159.500 249.500 159.500 283.500 L 159.500 317.500 186.745 317.766 L 213.989 318.032 214.245 405.082 L 214.500 492.132 255.244 492.316 L 295.989 492.500 296.244 405.500 L 296.500 318.500 319.469 318.231 C 332.102 318.083, 342.803 317.597, 343.248 317.152 C 344.384 316.016, 354.304 252.235, 353.622 250.457 C 353.147 249.219, 347.784 249, 318.031 249 L 283 249 283 222.038 C 283 197.162, 283.161 194.644, 285.084 189.505 C 288.311 180.880, 292.558 175.970, 300 172.259 C 308.674 167.935, 315.947 167.044, 342.750 167.020 L 365 167 365 137.559 C 365 121.366, 364.615 107.880, 364.145 107.590 C 361.635 106.038, 335.742 103.785, 316.500 103.443 C 299.487 103.141, 292.573 103.407, 286 104.616" stroke="none" fill="#fafafa" fill-rule="evenodd"/><path d="M 224.500 7.700 C 216.960 8.386, 196.499 12.105, 187 14.516 C 178.418 16.695, 172.745 18.520, 159.008 23.521 C 152.465 25.904, 135.113 34.425, 130.706 37.421 C 128.619 38.839, 126.513 40, 126.027 40 C 125.541 40, 124.526 40.617, 123.773 41.370 C 123.019 42.124, 121.074 43.480, 119.451 44.383 C 108.625 50.408, 93.784 62.126, 81 74.742 C 69.831 85.764, 66.448 89.460, 57.423 100.500 C 48.013 112.011, 34.231 135.142, 26.712 152.043 C -1.575 215.626, -0.057 296.461, 30.587 358.361 C 37.040 371.396, 38.997 375.112, 40.931 378 C 41.484 378.825, 44.947 384, 48.628 389.500 C 57.627 402.947, 64.665 411.415, 77.596 424.357 C 103.921 450.704, 133.675 469.504, 167.911 481.421 C 177.929 484.908, 202.663 491.272, 210.500 492.379 L 214.500 492.944 214.239 405.488 L 213.978 318.032 186.739 317.766 L 159.500 317.500 159.500 283.500 L 159.500 249.500 186.644 249.234 L 213.787 248.968 214.275 214.734 C 214.692 185.442, 215.050 179.199, 216.754 171.487 C 220.909 152.693, 227.534 140.253, 239.912 128 C 249.615 118.397, 256.286 114.110, 268.824 109.423 C 283.068 104.098, 294.966 102.627, 318.421 103.290 C 336.394 103.799, 361.890 106.196, 364.145 107.590 C 364.615 107.880, 365 121.366, 365 137.559 L 365 167 342.750 167.020 C 315.947 167.044, 308.674 167.935, 300 172.259 C 292.558 175.970, 288.311 180.880, 285.084 189.505 C 283.161 194.644, 283 197.162, 283 222.038 L 283 249 318.031 249 C 347.784 249, 353.147 249.219, 353.622 250.457 C 354.304 252.235, 344.384 316.016, 343.248 317.152 C 342.803 317.597, 332.102 318.083, 319.469 318.231 L 296.500 318.500 296.245 405.726 L 295.989 492.952 299.245 492.392 C 314.731 489.726, 340.997 480.236, 358.826 470.865 C 416.606 440.496, 461.023 388.460, 480.653 328.140 C 484.582 316.068, 488.031 300.813, 490.632 284 C 493.107 268.002, 493.109 233.025, 490.637 217 C 482.018 161.149, 459.383 116.044, 420.605 77.452 C 403.419 60.348, 387.810 48.412, 367.500 36.843 C 359.623 32.355, 342.583 24, 341.309 24 C 340.950 24, 337.913 22.902, 334.560 21.561 C 320.275 15.846, 295.794 10.123, 276.789 8.056 C 267.840 7.083, 233.833 6.851, 224.500 7.700" stroke="none" fill="#040404" fill-rule="evenodd"/></svg>