<svg xmlns="http://www.w3.org/2000/svg" width="512" height="512" viewBox="0 0 512 512" version="1.1"><path d="M 300.938 109.069 C 280.972 110.949, 262.242 117.615, 249.191 127.486 C 233.039 139.703, 222.654 159.986, 219.066 186.322 C 218.480 190.625, 218 208.287, 218 225.572 L 218 257 187 257 L 156 257 156 292.500 L 156 328 187 328 L 218 328 218 414 L 218 500 256 500 L 294 500 294 414 L 294 328 322.481 328 L 350.962 328 351.458 325.750 C 351.731 324.512, 354.001 310, 356.502 293.500 C 359.002 277, 361.313 262.038, 361.635 260.250 L 362.223 257 328.111 257 L 294 257 294 232.684 C 294 219.310, 294.490 205.715, 295.089 202.474 C 297.248 190.800, 303.868 181.781, 313.525 177.360 C 320.343 174.239, 329.999 173.069, 349.250 173.031 L 365 173 365 143.090 L 365 113.181 358.250 112.108 C 337.557 108.818, 315.843 107.666, 300.938 109.069" stroke="none" fill="#f3f3f4" fill-rule="evenodd"/><path d="M 242.500 13.082 C 155.187 19.414, 84.654 62.607, 44.229 134.500 C 21.385 175.125, 10.021 225.988, 13.062 274 C 18.716 363.291, 67.090 437.474, 144.366 475.358 C 165.873 485.902, 185.449 492.696, 209.250 497.878 L 218 499.783 218 413.891 L 218 328 187 328 L 156 328 156 292.500 L 156 257 187 257 L 218 257 218 225.572 C 218 208.287, 218.480 190.625, 219.066 186.322 C 222.654 159.986, 233.039 139.703, 249.191 127.486 C 272.474 109.876, 308.074 104.466, 354.413 111.496 C 359.865 112.323, 364.477 113, 364.663 113 C 364.848 113, 365 126.500, 365 143 L 365 173 349.250 173.031 C 329.999 173.069, 320.343 174.239, 313.525 177.360 C 303.868 181.781, 297.248 190.800, 295.089 202.474 C 294.490 205.715, 294 219.310, 294 232.684 L 294 257 328.111 257 L 362.223 257 361.635 260.250 C 361.313 262.038, 359.002 277, 356.502 293.500 C 354.001 310, 351.731 324.512, 351.458 325.750 L 350.962 328 322.481 328 L 294 328 294 413.891 L 294 499.783 302.750 497.870 C 375.374 481.998, 431.938 442.631, 466.155 384.145 C 482.796 355.702, 493.777 322.087, 498.054 286.500 C 499.748 272.405, 499.471 241.049, 497.524 226.500 C 485.341 135.475, 431.596 63.939, 351 31.475 C 317.675 18.052, 274.618 10.753, 242.500 13.082" stroke="none" fill="#1c74f4" fill-rule="evenodd"/></svg>