<svg xmlns="http://www.w3.org/2000/svg" viewBox="0 0 48 48" id="instagram">
  <g>
    <circle cx="24" cy="24" r="21.82" fill="#1c1c1c"></circle>
    <path fill="#fff" d="M18.88,23.78A5.12,5.12,0,1,1,24,28.9a5.12,5.12,0,0,1-5.12-5.12Zm-2.76,0A7.88,7.88,0,1,0,24,15.9a7.88,7.88,0,0,0-7.88,7.88Zm14.23-8.2a1.85,1.85,0,1,0,1.85-1.84,1.85,1.85,0,0,0-1.85,1.84ZM17.8,36.28A8.51,8.51,0,0,1,15,35.75,5.08,5.08,0,0,1,12,32.83,8.51,8.51,0,0,1,11.5,30c-.07-1.62-.09-2.1-.09-6.2s0-4.59.09-6.2A8.64,8.64,0,0,1,12,14.72,5.1,5.1,0,0,1,15,11.81a8.51,8.51,0,0,1,2.85-.53c1.62-.07,2.1-.09,6.2-.09s4.58,0,6.2.09a8.51,8.51,0,0,1,2.85.53A5.1,5.1,0,0,1,36,14.72a8.64,8.64,0,0,1,.53,2.86c.07,1.61.09,2.1.09,6.2s0,4.58-.09,6.2A8.51,8.51,0,0,1,36,32.83a5.08,5.08,0,0,1-2.92,2.92,8.51,8.51,0,0,1-2.85.53c-1.61.07-2.1.08-6.2.08s-4.58,0-6.2-.08ZM17.67,8.52a11.21,11.21,0,0,0-3.73.71A7.59,7.59,0,0,0,11.22,11a7.73,7.73,0,0,0-1.77,2.72,11.21,11.21,0,0,0-.71,3.73c-.07,1.64-.09,2.16-.09,6.33s0,4.69.09,6.33a11.09,11.09,0,0,0,.71,3.72,7.89,7.89,0,0,0,4.49,4.5,11.74,11.74,0,0,0,3.73.71c1.64.07,2.16.09,6.33.09s4.69,0,6.33-.09a11.74,11.74,0,0,0,3.73-.71,7.89,7.89,0,0,0,4.49-4.5,11.09,11.09,0,0,0,.71-3.72c.07-1.64.09-2.16.09-6.33s0-4.69-.09-6.33a11.21,11.21,0,0,0-.71-3.73A7.73,7.73,0,0,0,36.78,11a7.59,7.59,0,0,0-2.72-1.77,11.21,11.21,0,0,0-3.73-.71c-1.64-.08-2.16-.09-6.33-.09s-4.69,0-6.33.09Z"></path>
  </g>
</svg>
